Coordinates
version=1
nRows=17
nColumns=38
inDegrees=no

Units are S.I. units (second, meters, Newtons, ...)
If the header above contains a line with 'inDegrees', this indicates whether rotational values are in degrees (yes) or radians (no).

endheader
time	pelvis_tilt	pelvis_list	pelvis_rotation	pelvis_tx	pelvis_ty	pelvis_tz	hip_flexion_r	hip_adduction_r	hip_rotation_r	knee_angle_r	ankle_angle_r	subtalar_angle_r	mtp_angle_r	hip_flexion_l	hip_adduction_l	hip_rotation_l	knee_angle_l	ankle_angle_l	subtalar_angle_l	mtp_angle_l	lumbar_extension	lumbar_bending	lumbar_rotation	arm_flex_r	arm_add_r	arm_rot_r	elbow_flex_r	pro_sup_r	wrist_flex_r	wrist_dev_r	arm_flex_l	arm_add_l	arm_rot_l	elbow_flex_l	pro_sup_l	wrist_flex_l	wrist_dev_l
25	-1.0532	1.55252	2.70762	0.66048	-0.177188	0.856964	0.516432	-0.249029	-0.0631775	0.989437	0.308139	0	0	0.484997	-0.215433	-0.234895	0.973523	0.320305	0	0	-0.525831	-0.0075705	0.0199575	0.359837	-0.245443	0.703279	0.261019	0.981949	0	0	0.335701	-0.284431	0.390772	0.58081	1.10894	0	0
25.01	-1.10382	1.55104	2.76028	0.660314	-0.178634	0.852153	0.533916	-0.251746	-0.055006	1.01746	0.31703	0	0	0.501035	-0.215142	-0.228	0.999025	0.330131	0	0	-0.535592	-0.00804201	0.0174696	0.365415	-0.244292	0.706202	0.259961	0.983276	0	0	0.343526	-0.284136	0.389735	0.575617	1.1149	0	0
25.02	-1.17609	1.54926	2.83326	0.660355	-0.179917	0.847375	0.550719	-0.25409	-0.0458206	1.04484	0.32629	0	0	0.515413	-0.215527	-0.223505	1.02392	0.340027	0	0	-0.545577	-0.00962936	0.016076	0.370491	-0.243045	0.70792	0.25933	0.984256	0	0	0.351263	-0.283851	0.389084	0.569923	1.12005	0	0
25.03	-1.26302	1.54728	2.92082	0.660399	-0.181126	0.842655	0.566452	-0.256705	-0.0368956	1.07143	0.335693	0	0	0.52907	-0.215692	-0.219546	1.04859	0.349564	0	0	-0.556074	-0.0114144	0.0146658	0.375311	-0.241886	0.70898	0.25922	0.984564	0	0	0.358892	-0.283364	0.387983	0.564085	1.12445	0	0
25.04	-1.33313	1.54514	2.99155	0.66041	-0.182349	0.837934	0.581899	-0.259023	-0.0277676	1.09726	0.344878	0	0	0.54321	-0.215767	-0.215446	1.07355	0.357997	0	0	-0.566505	-0.0131057	0.0132506	0.38005	-0.240821	0.709979	0.259419	0.984367	0	0	0.366305	-0.282555	0.386555	0.558219	1.12849	0	0
25.05	-1.37897	1.54298	3.03795	0.660391	-0.183519	0.833158	0.597822	-0.261315	-0.0188631	1.12318	0.353748	0	0	0.557937	-0.215636	-0.210806	1.09867	0.365891	0	0	-0.57631	-0.014641	0.0118729	0.384383	-0.240027	0.712024	0.260129	0.983899	0	0	0.373325	-0.281268	0.384738	0.551841	1.13104	0	0
25.06	-1.46589	1.54121	3.12535	0.660322	-0.184566	0.828578	0.611323	-0.263499	-0.0108311	1.14796	0.361879	0	0	0.570253	-0.215637	-0.206319	1.12247	0.373341	0	0	-0.587391	-0.0155605	0.0106348	0.388667	-0.239813	0.71574	0.261598	0.983708	0	0	0.379523	-0.280005	0.383217	0.54698	1.13123	0	0
25.07	-1.49078	1.5396	-3.13291	0.660263	-0.185601	0.823753	0.627095	-0.265006	-0.00236092	1.17295	0.369653	0	0	0.584498	-0.215897	-0.201784	1.14647	0.381139	0	0	-0.596219	-0.0161671	0.00999955	0.392459	-0.239608	0.720708	0.262442	0.983225	0	0	0.385253	-0.278057	0.381464	0.541284	1.13084	0	0
25.08	-1.52529	1.5384	-3.0987	0.660205	-0.186528	0.818986	0.641823	-0.265789	0.00584657	1.1967	0.376873	0	0	0.597439	-0.216311	-0.197238	1.16926	0.389326	0	0	-0.604967	-0.0164485	0.0098889	0.395862	-0.239467	0.723334	0.263479	0.980963	0	0	0.390345	-0.276061	0.380433	0.53658	1.13034	0	0
25.09	-1.55747	1.53702	-3.06716	0.660197	-0.187301	0.814226	0.656232	-0.266409	0.0140973	1.21999	0.38408	0	0	0.609388	-0.216797	-0.193519	1.19098	0.397735	0	0	-0.613086	-0.017136	0.00993662	0.398717	-0.239164	0.725121	0.264747	0.977632	0	0	0.394717	-0.274201	0.379597	0.532514	1.12897	0	0
25.1	-1.58857	1.53528	-3.03728	0.660239	-0.188006	0.809498	0.67007	-0.26685	0.0227338	1.24241	0.391493	0	0	0.620759	-0.217061	-0.190206	1.21219	0.405571	0	0	-0.62092	-0.018434	0.010123	0.40138	-0.238862	0.727193	0.266363	0.973974	0	0	0.398725	-0.272374	0.378615	0.528402	1.12572	0	0
25.11	-1.62495	1.53331	-3.00284	0.660328	-0.188629	0.804854	0.683038	-0.266743	0.0319476	1.26375	0.398848	0	0	0.631569	-0.217201	-0.186941	1.23337	0.412551	0	0	-0.628843	-0.0202023	0.0106178	0.403919	-0.23873	0.728882	0.268525	0.96996	0	0	0.402298	-0.270663	0.377973	0.525015	1.12101	0	0
25.12	-1.66211	1.53132	-2.9678	0.660505	-0.189136	0.800325	0.695175	-0.26612	0.041098	1.28427	0.406209	0	0	0.641872	-0.217798	-0.184137	1.25417	0.419065	0	0	-0.6367	-0.0222714	0.011288	0.406178	-0.238448	0.729874	0.270908	0.96602	0	0	0.405806	-0.269188	0.37874	0.521684	1.11506	0	0
25.13	-1.70192	1.52935	-2.92989	0.660698	-0.18959	0.795976	0.70652	-0.265276	0.0498951	1.30423	0.413275	0	0	0.651677	-0.218319	-0.181216	1.27431	0.424687	0	0	-0.644737	-0.0242734	0.0117953	0.408392	-0.238005	0.731129	0.273133	0.963571	0	0	0.409268	-0.267877	0.380986	0.518338	1.10808	0	0
25.14	-1.74307	1.52707	-2.89027	0.660868	-0.19	0.791829	0.71716	-0.264703	0.058488	1.32363	0.419718	0	0	0.66034	-0.217843	-0.178064	1.29275	0.429916	0	0	-0.653037	-0.0263557	0.0116721	0.410782	-0.237261	0.733014	0.275089	0.962213	0	0	0.412571	-0.266811	0.384552	0.515002	1.10016	0	0
25.15	-1.7745	1.5252	-2.86066	0.661087	-0.190471	0.787811	0.727671	-0.262684	0.0677227	1.34181	0.425456	0	0	0.668994	-0.2181	-0.175336	1.31042	0.435024	0	0	-0.661095	-0.0283614	0.0117626	0.413544	-0.236437	0.735742	0.276812	0.961217	0	0	0.41587	-0.265686	0.388415	0.51165	1.09183	0	0
25.16	-1.81453	1.52503	-2.82357	0.6613	-0.190718	0.783651	0.737964	-0.258586	0.0760736	1.36004	0.431171	0	0	0.681185	-0.221194	-0.170791	1.33377	0.438253	0	0	-0.668044	-0.0291169	0.0132912	0.415743	-0.236396	0.738567	0.279307	0.959956	0	0	0.417477	-0.264152	0.391983	0.508816	1.0839	0	0
